<svg viewBox="0 0 42 42" fill="none" xmlns="http://www.w3.org/2000/svg">
<path d="M21 24.7405C23.0659 24.7405 24.7407 23.0658 24.7407 20.9999C24.7407 18.934 23.0659 17.2593 21 17.2593C18.9341 17.2593 17.2594 18.934 17.2594 20.9999C17.2594 23.0658 18.9341 24.7405 21 24.7405Z" fill="#61DAFB"/>
<path d="M35.2078 14.8312C34.4859 14.5687 33.7312 14.3062 32.9437 14.0765C33.1406 13.289 33.3047 12.5015 33.4359 11.7468C34.125 7.41553 33.3703 4.36396 31.2703 3.18271C30.6469 2.82178 29.9578 2.65771 29.1703 2.65771C26.8734 2.65771 23.9531 4.36396 21 7.21865C18.0469 4.36396 15.1265 2.65771 12.8297 2.65771C12.0422 2.65771 11.3531 2.82178 10.7297 3.18271C8.62966 4.39678 7.87498 7.44834 8.56404 11.7468C8.69529 12.5015 8.85935 13.289 9.05623 14.0765C8.26873 14.3062 7.51404 14.5358 6.79216 14.8312C2.6906 16.4062 0.459351 18.5718 0.459351 20.9999C0.459351 23.428 2.72341 25.5937 6.79216 27.1687C7.51404 27.4312 8.26873 27.6937 9.05623 27.9233C8.85935 28.7108 8.69529 29.4983 8.56404 30.253C7.87498 34.5843 8.62966 37.6358 10.7297 38.8171C11.3531 39.178 12.0422 39.3421 12.8297 39.3421C15.1593 39.3421 18.0797 37.6358 21 34.7812C23.9531 37.6358 26.8734 39.3421 29.1703 39.3421C29.9578 39.3421 30.6469 39.178 31.2703 38.8171C33.3703 37.603 34.125 34.5515 33.4359 30.253C33.3047 29.4983 33.1406 28.7108 32.9437 27.9233C33.7312 27.6937 34.4859 27.464 35.2078 27.1687C39.3094 25.5937 41.5406 23.428 41.5406 20.9999C41.5406 18.5718 39.3094 16.4062 35.2078 14.8312ZM30.3515 4.82334C31.6969 5.61084 32.1562 8.03896 31.5984 11.4843C31.5 12.1733 31.3359 12.8952 31.139 13.6499C29.4328 13.2562 27.6281 12.9937 25.725 12.8296C24.6094 11.2546 23.4609 9.84365 22.3125 8.56396C24.7406 6.16865 27.2015 4.52803 29.2031 4.52803C29.6297 4.52803 30.0234 4.62646 30.3515 4.82334ZM26.6765 24.2812C26.0859 25.3312 25.3968 26.3812 24.675 27.4312C23.4609 27.5296 22.2469 27.5624 21 27.5624C19.7203 27.5624 18.5062 27.5296 17.325 27.4312C16.6031 26.3812 15.9468 25.3312 15.3562 24.2812C14.7328 23.1983 14.1422 22.0827 13.6172 20.9999C14.1422 19.9171 14.7328 18.8015 15.3562 17.7187C15.9468 16.6687 16.6359 15.6187 17.3578 14.5687C18.5719 14.4702 19.7859 14.4374 21.0328 14.4374C22.3125 14.4374 23.5265 14.4702 24.7078 14.5687C25.4297 15.6187 26.0859 16.6687 26.6765 17.7187C27.3 18.8015 27.8906 19.9171 28.4156 20.9999C27.8578 22.0827 27.3 23.1655 26.6765 24.2812ZM29.4 23.1983C29.8922 24.3468 30.2859 25.4624 30.6469 26.578C29.5312 26.8405 28.35 27.0374 27.1031 27.2015C27.4968 26.578 27.9234 25.9218 28.2843 25.2327C28.6781 24.5437 29.039 23.8546 29.4 23.1983ZM21 32.0905C20.2125 31.2374 19.4578 30.3187 18.7359 29.3671C19.4906 29.3999 20.2453 29.4327 21 29.4327C21.7547 29.4327 22.5094 29.3999 23.264 29.3671C22.5422 30.3187 21.7875 31.2374 21 32.0905ZM14.8969 27.1687C13.65 27.0046 12.4687 26.8077 11.3531 26.5452C11.714 25.4624 12.1078 24.314 12.6 23.1655C12.9609 23.8218 13.3218 24.5108 13.7156 25.1671C14.1093 25.889 14.5031 26.5124 14.8969 27.1687ZM12.6 18.8015C12.1078 17.653 11.714 16.5374 11.3531 15.4218C12.4687 15.1593 13.65 14.9624 14.8969 14.7983C14.5031 15.4218 14.0765 16.078 13.7156 16.7671C13.3218 17.4562 12.9609 18.1452 12.6 18.8015ZM21 9.90928C21.7875 10.7624 22.5422 11.6812 23.264 12.6327C22.5094 12.5999 21.7547 12.5671 21 12.5671C20.2453 12.5671 19.4906 12.5999 18.7359 12.6327C19.4578 11.6812 20.2125 10.7624 21 9.90928ZM28.2843 16.7999L27.1031 14.8312C28.35 14.9952 29.5312 15.1921 30.6469 15.4546C30.2859 16.5374 29.8922 17.6858 29.4 18.8343C29.039 18.1452 28.6781 17.4562 28.2843 16.7999ZM10.4015 11.4843C9.84373 8.03896 10.3031 5.61084 11.6484 4.82334C11.9765 4.62646 12.3703 4.52803 12.7969 4.52803C14.7656 4.52803 17.2265 6.13584 19.6875 8.56396C18.539 9.81084 17.3906 11.2546 16.275 12.8296C14.3718 12.9937 12.5672 13.289 10.8609 13.6499C10.664 12.8952 10.5328 12.1733 10.4015 11.4843ZM2.29685 20.9999C2.29685 19.4577 4.16716 17.8171 7.44841 16.603C8.10466 16.3405 8.82654 16.1108 9.54841 15.914C10.0734 17.5546 10.7297 19.2937 11.5172 21.0327C10.7297 22.7718 10.0406 24.478 9.54841 26.1187C5.02029 24.8062 2.29685 22.8374 2.29685 20.9999ZM11.6484 37.1765C10.3031 36.389 9.84373 33.9608 10.4015 30.5155C10.5 29.8265 10.664 29.1046 10.8609 28.3499C12.5672 28.7437 14.3718 29.0062 16.275 29.1702C17.3906 30.7452 18.539 32.1562 19.6875 33.4358C17.2594 35.8312 14.7984 37.4718 12.7969 37.4718C12.3703 37.4718 11.9765 37.3733 11.6484 37.1765ZM31.5984 30.5155C32.1562 33.9608 31.6969 36.389 30.3515 37.1765C30.0234 37.3733 29.6297 37.4718 29.2031 37.4718C27.2344 37.4718 24.7734 35.864 22.3125 33.4358C23.4609 32.189 24.6094 30.7452 25.725 29.1702C27.6281 29.0062 29.4328 28.7108 31.139 28.3499C31.3359 29.1046 31.4672 29.8265 31.5984 30.5155ZM34.5515 25.3968C33.8953 25.6593 33.1734 25.889 32.4515 26.0858C31.9265 24.4452 31.2703 22.7062 30.4828 20.9671C31.2703 19.228 31.9594 17.5218 32.4515 15.8812C36.9797 17.1937 39.7031 19.1624 39.7031 20.9999C39.7031 22.5421 37.8 24.1827 34.5515 25.3968Z" fill="#61DAFB"/>
</svg>
