<svg xmlns="http://www.w3.org/2000/svg" fill="none" viewBox="0 0 30 31"><path fill="#fff" d="M15 25.503a1.5 1.5 0 011.49 1.325l.01.175v1.5a1.5 1.5 0 01-2.99.176l-.01-.176v-1.5a1.5 1.5 0 011.5-1.5zm9.47-3.136l.142.125 1.05 1.05a1.5 1.5 0 01-1.98 2.246l-.142-.125-1.05-1.05a1.5 1.5 0 011.828-2.35l.153.104zm-16.96.125a1.5 1.5 0 01.124 1.98l-.124.141-1.05 1.05a1.5 1.5 0 01-2.246-1.98l.124-.14 1.05-1.051a1.5 1.5 0 012.122 0zm-4.511-8.99a1.5 1.5 0 01.175 2.99l-.175.01h-1.5a1.5 1.5 0 01-.176-2.99l.175-.01h1.5zm25.503 0a1.5 1.5 0 01.175 2.99l-.175.01h-1.5a1.5 1.5 0 01-.176-2.99l.175-.01h1.5zM6.319 4.214l.14.125 1.05 1.05a1.5 1.5 0 01-1.98 2.246l-.14-.125-1.05-1.05a1.5 1.5 0 011.825-2.35l.155.104zm19.343.125a1.5 1.5 0 01.124 1.98l-.124.141-1.05 1.05a1.5 1.5 0 01-2.246-1.98l.124-.14 1.05-1.051a1.5 1.5 0 012.122 0zM15 0a1.5 1.5 0 011.49 1.325l.01.175V3a1.5 1.5 0 01-2.99.176L13.5 3V1.5A1.5 1.5 0 0115 0zm0 7.5a7.5 7.5 0 11-7.493 7.827l-.008-.325.008-.326A7.5 7.5 0 0115 7.501z"></svg>